<?xml version="1.0" encoding="UTF-8"?>
<svg version="1.1" xmlns="http://www.w3.org/2000/svg" width="241" height="231">
<path d="M0 0 C79.53 0 159.06 0 241 0 C241 76.23 241 152.46 241 231 C161.47 231 81.94 231 0 231 C0 154.77 0 78.54 0 0 Z " fill="#81BAFB" transform="translate(0,0)"/>
<path d="M0 0 C2.64 0 5.28 0 8 0 C8.12117188 1.09699219 8.24234375 2.19398437 8.3671875 3.32421875 C8.53609363 4.77868823 8.70538481 6.23311304 8.875 7.6875 C8.95363281 8.40873047 9.03226562 9.12996094 9.11328125 9.87304688 C9.5958008 13.93734614 10.44308455 17.19753342 12 21 C12.50581512 23.66803579 12.96180509 26.31829579 13.375 29 C14.27249833 34.52356988 15.42376729 39.73390825 17.1875 45.0625 C18.78291225 50.00333097 19.86095553 53.8342668 19 59 C16.48653337 61.2262133 14.83450434 61.92698087 11.5 62.21875 C8.76200706 62.77819252 8.76200706 62.77819252 7.41796875 65.50390625 C6.80888672 67.01791016 6.80888672 67.01791016 6.1875 68.5625 C5.55908203 70.08037109 5.55908203 70.08037109 4.91796875 71.62890625 C4.61503906 72.41136719 4.31210938 73.19382812 4 74 C1.69 73.67 -0.62 73.34 -3 73 C-3.0270043 71.54176788 -3.04639787 70.08339325 -3.0625 68.625 C-3.07410156 67.81289062 -3.08570312 67.00078125 -3.09765625 66.1640625 C-3 64 -3 64 -2 62 C-5.465 62.495 -5.465 62.495 -9 63 C-9 63.66 -9 64.32 -9 65 C-13.77962147 65.19118486 -17.60470084 64.98834962 -22 63 C-23.26432703 59.20701891 -22.53917074 58.4111861 -20.83203125 54.88671875 C-20.35056641 53.88576172 -19.86910156 52.88480469 -19.37304688 51.85351562 C-18.85806641 50.80873047 -18.34308594 49.76394531 -17.8125 48.6875 C-17.31685547 47.65431641 -16.82121094 46.62113281 -16.31054688 45.55664062 C-13.83319078 40.45466155 -11.31972943 35.60325251 -8 31 C-8.78761719 31.144375 -9.57523437 31.28875 -10.38671875 31.4375 C-26.27725369 34.14547282 -38.3420377 32.29074889 -53.61914062 27.66430664 C-57.67661214 26.5321922 -61.42848872 25.87366319 -65.64453125 25.90234375 C-66.48564453 25.90556641 -67.32675781 25.90878906 -68.19335938 25.91210938 C-69.48983398 25.92467773 -69.48983398 25.92467773 -70.8125 25.9375 C-71.69615234 25.94201172 -72.57980469 25.94652344 -73.49023438 25.95117188 C-75.66018559 25.96290134 -77.83010172 25.98083505 -80 26 C-80.99 28.475 -80.99 28.475 -82 31 C-81.45859375 31.26554687 -80.9171875 31.53109375 -80.359375 31.8046875 C-77.62474418 33.19011305 -74.93875859 34.65258458 -72.25 36.125 C-71.26515625 36.66382813 -70.2803125 37.20265625 -69.265625 37.7578125 C-68.51796875 38.16773438 -67.7703125 38.57765625 -67 39 C-67 39.66 -67 40.32 -67 41 C-65.515 41.495 -65.515 41.495 -64 42 C-64.33 42.99 -64.66 43.98 -65 45 C-65.93779297 44.09121094 -65.93779297 44.09121094 -66.89453125 43.1640625 C-70.9644692 40.32790448 -74.90089545 39.47155447 -79.6875 38.375 C-81.40121449 37.97237266 -83.11354437 37.5637919 -84.82421875 37.1484375 C-85.95476685 36.88812744 -85.95476685 36.88812744 -87.1081543 36.62255859 C-89 36 -89 36 -91 34 C-90.61465407 30.92365498 -89.34767444 28.56152859 -87.75 25.9375 C-87.35296875 25.26589844 -86.9559375 24.59429687 -86.546875 23.90234375 C-83.9787653 20.74408763 -81.75057543 19.19440865 -77.61914062 18.7355957 C-74.69827171 18.63064965 -71.79730168 18.64066824 -68.875 18.6875 C-67.89273438 18.68427734 -66.91046875 18.68105469 -65.8984375 18.67773438 C-56.05503695 18.74896951 -46.80321467 20.66343135 -37.3125 23.125 C-36.59900391 23.30675781 -35.88550781 23.48851563 -35.15039062 23.67578125 C-33.43273671 24.11384064 -31.71623303 24.55640652 -30 25 C-30 25.66 -30 26.32 -30 27 C-22.08 27 -14.16 27 -6 27 C-5.01 24.03 -4.02 21.06 -3 18 C-2.43152344 16.69482422 -2.43152344 16.69482422 -1.8515625 15.36328125 C-0.74483321 12.29185365 -0.57211055 9.43982411 -0.375 6.1875 C-0.30023438 5.02605469 -0.22546875 3.86460938 -0.1484375 2.66796875 C-0.07496094 1.34732422 -0.07496094 1.34732422 0 0 Z " fill="#8C1D0D" transform="translate(130,91)"/>
<path d="M0 0 C0.78246094 -0.02578125 1.56492187 -0.0515625 2.37109375 -0.078125 C4.5625 0.25 4.5625 0.25 6.3671875 1.62890625 C7.5625 3.25 7.5625 3.25 7.25 5.4375 C7.023125 6.035625 6.79625 6.63375 6.5625 7.25 C7.2225 7.25 7.8825 7.25 8.5625 7.25 C8.69527344 8.08144531 8.82804687 8.91289063 8.96484375 9.76953125 C9.22974609 11.39955078 9.22974609 11.39955078 9.5 13.0625 C9.76103516 14.68091797 9.76103516 14.68091797 10.02734375 16.33203125 C10.50121921 19.29933356 10.50121921 19.29933356 11.5625 22.25 C11.83211505 25.57097273 12.00749436 28.89159564 12.18359375 32.21875 C12.35461556 35.42265473 12.35461556 35.42265473 14.5625 38.25 C14.9765625 40.73046875 14.9765625 40.73046875 15.1875 43.4375 C15.29964844 44.78908203 15.29964844 44.78908203 15.4140625 46.16796875 C15.46304688 46.85503906 15.51203125 47.54210937 15.5625 48.25 C16.2225 48.25 16.8825 48.25 17.5625 48.25 C17.86575122 50.4958605 18.12902522 52.7471469 18.375 55 C18.52582031 56.25296875 18.67664063 57.5059375 18.83203125 58.796875 C18.5625 62.25 18.5625 62.25 16.28125 64.6875 C13.10919253 66.51052154 11.16337618 66.58496523 7.5625 66.25 C5.56217376 69.87714759 4.90518763 73.27541611 4.22265625 77.32421875 C4.00480469 77.95972656 3.78695312 78.59523438 3.5625 79.25 C2.0775 79.745 2.0775 79.745 0.5625 80.25 C0.5625 80.91 0.5625 81.57 0.5625 82.25 C-7.1875 82.375 -7.1875 82.375 -9.4375 81.25 C-9.8515625 78.96484375 -9.8515625 78.96484375 -10.0625 76.1875 C-10.17464844 74.80884766 -10.17464844 74.80884766 -10.2890625 73.40234375 C-10.36253906 72.33693359 -10.36253906 72.33693359 -10.4375 71.25 C-11.48550781 71.23582031 -12.53351563 71.22164063 -13.61328125 71.20703125 C-14.99223142 71.16012818 -16.37113633 71.11188079 -17.75 71.0625 C-18.44029297 71.05669922 -19.13058594 71.05089844 -19.84179688 71.04492188 C-21.86328125 70.95703125 -21.86328125 70.95703125 -25.4375 70.25 C-28.19458787 66.92398923 -28.80402803 64.5261604 -28.4375 60.25 C-27.7775 59.92 -27.1175 59.59 -26.4375 59.25 C-25.59585291 57.37511739 -25.59585291 57.37511739 -24.9375 55.125 C-24.68097656 54.31417969 -24.42445312 53.50335938 -24.16015625 52.66796875 C-23.54152089 50.59804829 -22.95497421 48.51858393 -22.375 46.4375 C-21.60371606 43.8151346 -20.76620148 41.62268121 -19.4375 39.25 C-23.15349191 39.04913557 -24.20958445 39.0980563 -27.4375 41.25 C-30.21484375 41.078125 -30.21484375 41.078125 -33.375 40.5 C-34.41527344 40.31953125 -35.45554688 40.1390625 -36.52734375 39.953125 C-39.12157134 39.32633176 -41.1304503 38.56196079 -43.4375 37.25 C-43.4375 36.26 -43.4375 35.27 -43.4375 34.25 C-51.75586734 32.25074627 -60.04023657 31.64073221 -68.5625 31.125 C-69.91410206 31.03837548 -71.26566511 30.95114 -72.6171875 30.86328125 C-75.89029364 30.65286728 -79.16365874 30.44858877 -82.4375 30.25 C-82.4375 31.24 -82.4375 32.23 -82.4375 33.25 C-81.5403125 33.435625 -81.5403125 33.435625 -80.625 33.625 C-78.4375 34.25 -78.4375 34.25 -75.4375 36.25 C-75.4375 36.91 -75.4375 37.57 -75.4375 38.25 C-79.34961733 37.09414715 -82.3120041 35.89465038 -85.4375 33.25 C-84.5625 28.375 -84.5625 28.375 -83.4375 27.25 C-67.46507642 25.80461459 -52.54949619 29.21266794 -37.4375 34.25 C-28.74869852 34.68064031 -20.08704092 34.04275661 -11.4375 33.25 C-13.5677949 39.18093466 -16.78919408 44.6109549 -19.8046875 50.125 C-22.30617658 54.78753882 -24.21507965 59.09638694 -25.4375 64.25 C-21.11185795 65.83255197 -17.008779 66.70144652 -12.4375 67.25 C-12.4375 66.59 -12.4375 65.93 -12.4375 65.25 C-8.9725 64.755 -8.9725 64.755 -5.4375 64.25 C-5.7675 67.88 -6.0975 71.51 -6.4375 75.25 C-4.1275 75.25 -1.8175 75.25 0.5625 75.25 C0.73523438 74.57453125 0.90796875 73.8990625 1.0859375 73.203125 C3.35388054 66.00396637 3.35388054 66.00396637 7.0546875 63.6953125 C9.53925317 62.73104764 11.98141486 61.91004849 14.5625 61.25 C14.8161206 55.28991593 14.0616063 50.6933346 12.1875 45.0625 C10.18902681 38.72924164 8.79948092 32.60109087 8.01953125 25.984375 C7.54874899 23.167729 6.66844055 20.87278391 5.5625 18.25 C4.53118795 12.88717733 4.45158637 7.68476771 4.5625 2.25 C1.9225 2.25 -0.7175 2.25 -3.4375 2.25 C-3.41429687 3.13042969 -3.39109375 4.01085937 -3.3671875 4.91796875 C-3.34914063 6.07941406 -3.33109375 7.24085937 -3.3125 8.4375 C-3.28929687 9.58605469 -3.26609375 10.73460938 -3.2421875 11.91796875 C-3.43628813 15.22932548 -4.06676695 17.26779585 -5.4375 20.25 C-6.23392949 22.61261381 -6.9950389 24.98447406 -7.75390625 27.359375 C-8.4375 29.25 -8.4375 29.25 -9.4375 30.25 C-10.87880069 30.34888535 -12.32484377 30.38079377 -13.76953125 30.3828125 C-14.65060547 30.38410156 -15.53167969 30.38539062 -16.43945312 30.38671875 C-17.83067383 30.38091797 -17.83067383 30.38091797 -19.25 30.375 C-20.16587891 30.37886719 -21.08175781 30.38273437 -22.02539062 30.38671875 C-22.91033203 30.38542969 -23.79527344 30.38414063 -24.70703125 30.3828125 C-25.51760986 30.38168457 -26.32818848 30.38055664 -27.16333008 30.37939453 C-29.37989451 30.25327761 -31.30924244 29.86399667 -33.4375 29.25 C-33.4375 28.59 -33.4375 27.93 -33.4375 27.25 C-34.71625 27.146875 -35.995 27.04375 -37.3125 26.9375 C-41.68924016 26.46341041 -45.62764528 25.39012127 -49.78515625 23.96875 C-57.0632772 21.99647569 -64.57166086 22.00971246 -72.0625 21.9375 C-73.5784375 21.89399414 -73.5784375 21.89399414 -75.125 21.84960938 C-81.22436273 21.79758069 -84.83982962 22.10088282 -89.4375 26.25 C-91.42094157 29.53293777 -92.567567 32.54679896 -93.4375 36.25 C-92.89480469 36.44335938 -92.35210937 36.63671875 -91.79296875 36.8359375 C-91.07753906 37.09632812 -90.36210938 37.35671875 -89.625 37.625 C-88.56345703 38.00785156 -88.56345703 38.00785156 -87.48046875 38.3984375 C-85.4375 39.25 -85.4375 39.25 -82.4375 41.25 C-83.9225 41.745 -83.9225 41.745 -85.4375 42.25 C-85.7675 41.92 -86.0975 41.59 -86.4375 41.25 C-88.45061449 40.85430892 -90.47347208 40.50747809 -92.5 40.1875 C-93.60472656 40.01089844 -94.70945313 39.83429688 -95.84765625 39.65234375 C-96.70230469 39.51957031 -97.55695313 39.38679688 -98.4375 39.25 C-98.4375 37.93 -98.4375 36.61 -98.4375 35.25 C-97.7775 35.25 -97.1175 35.25 -96.4375 35.25 C-96.41171875 34.40695313 -96.3859375 33.56390625 -96.359375 32.6953125 C-96.30265625 31.59960938 -96.2459375 30.50390625 -96.1875 29.375 C-96.14109375 28.28445312 -96.0946875 27.19390625 -96.046875 26.0703125 C-95.4375 23.25 -95.4375 23.25 -93.5625 22.03125 C-92.86125 21.7734375 -92.16 21.515625 -91.4375 21.25 C-89.73253463 19.62253306 -88.05852968 17.96108689 -86.4375 16.25 C-85.4475 16.91 -84.4575 17.57 -83.4375 18.25 C-80.85138638 18.45051527 -80.85138638 18.45051527 -77.96484375 18.26171875 C-76.90072266 18.21466797 -75.83660156 18.16761719 -74.74023438 18.11914062 C-73.62970703 18.05919922 -72.51917969 17.99925781 -71.375 17.9375 C-70.26060547 17.88916016 -69.14621094 17.84082031 -67.99804688 17.79101562 C-62.54495251 17.76016985 -62.54495251 17.76016985 -57.4375 16.25 C-57.4375 17.24 -57.4375 18.23 -57.4375 19.25 C-56.1175 19.25 -54.7975 19.25 -53.4375 19.25 C-53.4375 18.59 -53.4375 17.93 -53.4375 17.25 C-52.7775 17.58 -52.1175 17.91 -51.4375 18.25 C-48.84501328 18.52175818 -46.25301489 18.69572568 -43.65234375 18.87109375 C-42.55599609 19.05865234 -42.55599609 19.05865234 -41.4375 19.25 C-40.9425 20.24 -40.9425 20.24 -40.4375 21.25 C-39.7775 21.25 -39.1175 21.25 -38.4375 21.25 C-37.9425 22.24 -37.9425 22.24 -37.4375 23.25 C-29.18013252 26.43664604 -21.25383954 27.89773107 -12.4375 27.25 C-12.4375 26.59 -12.4375 25.93 -12.4375 25.25 C-11.7775 25.25 -11.1175 25.25 -10.4375 25.25 C-10.4375 21.95 -10.4375 18.65 -10.4375 15.25 C-10.1075 15.25 -9.7775 15.25 -9.4375 15.25 C-9.24414062 14.25097656 -9.05078125 13.25195312 -8.8515625 12.22265625 C-8.59117188 10.93230469 -8.33078125 9.64195313 -8.0625 8.3125 C-7.80726562 7.02472656 -7.55203125 5.73695312 -7.2890625 4.41015625 C-7.00804688 3.36730469 -6.72703125 2.32445313 -6.4375 1.25 C-4.11063547 0.08656773 -2.59028587 0.05104012 0 0 Z " fill="#ACB2D0" transform="translate(133.4375,88.75)"/>
<path d="M0 0 C2.64 0 5.28 0 8 0 C8.99 8.91 8.99 8.91 10 18 C8.35 18 6.7 18 5 18 C1.64778612 19.42921786 1.64778612 19.42921786 -1 22 C-1.74176007 25.52513528 -1.74176007 25.52513528 -2 29 C-3.375 30.5 -3.375 30.5 -5 32 C-6.14240597 34.2899812 -7.05580895 36.61704162 -8 39 C-8.66 39 -9.32 39 -10 39 C-10 39.66 -10 40.32 -10 41 C-11.32 41.33 -12.64 41.66 -14 42 C-13.37755401 40.72791378 -12.75193233 39.45738118 -12.125 38.1875 C-11.77695313 37.47980469 -11.42890625 36.77210937 -11.0703125 36.04296875 C-10 34 -10 34 -8 31 C-8.78761719 31.144375 -9.57523437 31.28875 -10.38671875 31.4375 C-26.27725369 34.14547282 -38.3420377 32.29074889 -53.61914062 27.66430664 C-57.67661214 26.5321922 -61.42848872 25.87366319 -65.64453125 25.90234375 C-66.48564453 25.90556641 -67.32675781 25.90878906 -68.19335938 25.91210938 C-69.48983398 25.92467773 -69.48983398 25.92467773 -70.8125 25.9375 C-71.69615234 25.94201172 -72.57980469 25.94652344 -73.49023438 25.95117188 C-75.66018559 25.96290134 -77.83010172 25.98083505 -80 26 C-80.99 28.475 -80.99 28.475 -82 31 C-81.45859375 31.26554687 -80.9171875 31.53109375 -80.359375 31.8046875 C-77.62474418 33.19011305 -74.93875859 34.65258458 -72.25 36.125 C-71.26515625 36.66382813 -70.2803125 37.20265625 -69.265625 37.7578125 C-68.51796875 38.16773438 -67.7703125 38.57765625 -67 39 C-67 39.66 -67 40.32 -67 41 C-65.515 41.495 -65.515 41.495 -64 42 C-64.33 42.99 -64.66 43.98 -65 45 C-65.93779297 44.09121094 -65.93779297 44.09121094 -66.89453125 43.1640625 C-70.9644692 40.32790448 -74.90089545 39.47155447 -79.6875 38.375 C-81.40121449 37.97237266 -83.11354437 37.5637919 -84.82421875 37.1484375 C-85.95476685 36.88812744 -85.95476685 36.88812744 -87.1081543 36.62255859 C-89 36 -89 36 -91 34 C-90.61465407 30.92365498 -89.34767444 28.56152859 -87.75 25.9375 C-87.35296875 25.26589844 -86.9559375 24.59429687 -86.546875 23.90234375 C-83.9787653 20.74408763 -81.75057543 19.19440865 -77.61914062 18.7355957 C-74.69827171 18.63064965 -71.79730168 18.64066824 -68.875 18.6875 C-67.89273438 18.68427734 -66.91046875 18.68105469 -65.8984375 18.67773438 C-56.05503695 18.74896951 -46.80321467 20.66343135 -37.3125 23.125 C-36.59900391 23.30675781 -35.88550781 23.48851563 -35.15039062 23.67578125 C-33.43273671 24.11384064 -31.71623303 24.55640652 -30 25 C-30 25.66 -30 26.32 -30 27 C-22.08 27 -14.16 27 -6 27 C-5.01 24.03 -4.02 21.06 -3 18 C-2.43152344 16.69482422 -2.43152344 16.69482422 -1.8515625 15.36328125 C-0.74483321 12.29185365 -0.57211055 9.43982411 -0.375 6.1875 C-0.30023438 5.02605469 -0.22546875 3.86460938 -0.1484375 2.66796875 C-0.07496094 1.34732422 -0.07496094 1.34732422 0 0 Z " fill="#8A200E" transform="translate(130,91)"/>
<path d="M0 0 C-0.11456128 2.39674267 -0.24128719 4.79181218 -0.375 7.1875 C-0.4059375 7.86103516 -0.436875 8.53457031 -0.46875 9.22851562 C-0.70290897 13.22873142 -1.33469848 16.36829078 -3 20 C-3.79642949 22.36261381 -4.5575389 24.73447406 -5.31640625 27.109375 C-6 29 -6 29 -7 30 C-8.44130069 30.09888535 -9.88734377 30.13079377 -11.33203125 30.1328125 C-12.21310547 30.13410156 -13.09417969 30.13539062 -14.00195312 30.13671875 C-15.39317383 30.13091797 -15.39317383 30.13091797 -16.8125 30.125 C-17.72837891 30.12886719 -18.64425781 30.13273437 -19.58789062 30.13671875 C-20.47283203 30.13542969 -21.35777344 30.13414063 -22.26953125 30.1328125 C-23.08010986 30.13168457 -23.89068848 30.13055664 -24.72583008 30.12939453 C-26.94239451 30.00327761 -28.87174244 29.61399667 -31 29 C-31 28.34 -31 27.68 -31 27 C-32.27875 26.896875 -33.5575 26.79375 -34.875 26.6875 C-39.25174016 26.21341041 -43.19014528 25.14012127 -47.34765625 23.71875 C-54.6257772 21.74647569 -62.13416086 21.75971246 -69.625 21.6875 C-71.1409375 21.64399414 -71.1409375 21.64399414 -72.6875 21.59960938 C-78.78686273 21.54758069 -82.40232962 21.85088282 -87 26 C-88.98344157 29.28293777 -90.130067 32.29679896 -91 36 C-90.45730469 36.19335938 -89.91460937 36.38671875 -89.35546875 36.5859375 C-88.64003906 36.84632812 -87.92460938 37.10671875 -87.1875 37.375 C-86.12595703 37.75785156 -86.12595703 37.75785156 -85.04296875 38.1484375 C-83 39 -83 39 -80 41 C-81.485 41.495 -81.485 41.495 -83 42 C-83.33 41.67 -83.66 41.34 -84 41 C-86.01311449 40.60430892 -88.03597208 40.25747809 -90.0625 39.9375 C-91.16722656 39.76089844 -92.27195313 39.58429688 -93.41015625 39.40234375 C-94.26480469 39.26957031 -95.11945313 39.13679688 -96 39 C-96 37.68 -96 36.36 -96 35 C-95.34 35 -94.68 35 -94 35 C-93.97421875 34.15695313 -93.9484375 33.31390625 -93.921875 32.4453125 C-93.86515625 31.34960938 -93.8084375 30.25390625 -93.75 29.125 C-93.70359375 28.03445312 -93.6571875 26.94390625 -93.609375 25.8203125 C-93 23 -93 23 -91.125 21.78125 C-90.42375 21.5234375 -89.7225 21.265625 -89 21 C-87.29503463 19.37253306 -85.62102968 17.71108689 -84 16 C-83.01 16.66 -82.02 17.32 -81 18 C-78.41388638 18.20051527 -78.41388638 18.20051527 -75.52734375 18.01171875 C-74.46322266 17.96466797 -73.39910156 17.91761719 -72.30273438 17.86914062 C-71.19220703 17.80919922 -70.08167969 17.74925781 -68.9375 17.6875 C-67.82310547 17.63916016 -66.70871094 17.59082031 -65.56054688 17.54101562 C-60.10745251 17.51016985 -60.10745251 17.51016985 -55 16 C-55 16.99 -55 17.98 -55 19 C-53.68 19 -52.36 19 -51 19 C-51 18.34 -51 17.68 -51 17 C-50.34 17.33 -49.68 17.66 -49 18 C-46.40751328 18.27175818 -43.81551489 18.44572568 -41.21484375 18.62109375 C-40.11849609 18.80865234 -40.11849609 18.80865234 -39 19 C-38.505 19.99 -38.505 19.99 -38 21 C-37.34 21 -36.68 21 -36 21 C-35.505 21.99 -35.505 21.99 -35 23 C-26.74263252 26.18664604 -18.81633954 27.64773107 -10 27 C-10 26.34 -10 25.68 -10 25 C-9.34 25 -8.68 25 -8 25 C-8 21.7 -8 18.4 -8 15 C-7.67 15 -7.34 15 -7 15 C-6.80664062 14.00097656 -6.61328125 13.00195312 -6.4140625 11.97265625 C-6.15367188 10.68230469 -5.89328125 9.39195313 -5.625 8.0625 C-5.36976562 6.77472656 -5.11453125 5.48695312 -4.8515625 4.16015625 C-4.57054688 3.11730469 -4.28953125 2.07445313 -4 1 C-2 0 -2 0 0 0 Z " fill="#A0BEE9" transform="translate(131,89)"/>
<path d="M0 0 C0.98226562 -0.00322266 1.96453125 -0.00644531 2.9765625 -0.00976562 C12.81996305 0.06146951 22.07178533 1.97593135 31.5625 4.4375 C32.27599609 4.61925781 32.98949219 4.80101563 33.72460938 4.98828125 C35.44226329 5.42634064 37.15876697 5.86890652 38.875 6.3125 C38.875 6.6425 38.875 6.9725 38.875 7.3125 C31.58827254 7.56376646 31.58827254 7.56376646 28.125 6.34375 C24.20039587 5.09844292 20.58990206 4.86500027 16.5 4.6875 C15.76394531 4.64882812 15.02789062 4.61015625 14.26953125 4.5703125 C12.47172594 4.47692002 10.67339892 4.3936629 8.875 4.3125 C9.50591553 4.44825439 10.13683105 4.58400879 10.78686523 4.72387695 C13.63190342 5.34400657 16.47204946 5.98420023 19.3125 6.625 C20.30572266 6.83833984 21.29894531 7.05167969 22.32226562 7.27148438 C23.73862305 7.59536133 23.73862305 7.59536133 25.18359375 7.92578125 C26.49541626 8.21642456 26.49541626 8.21642456 27.83374023 8.51293945 C28.50735596 8.77679443 29.18097168 9.04064941 29.875 9.3125 C30.37 10.7975 30.37 10.7975 30.875 12.3125 C25.26631015 11.37403811 19.8276633 10.31251689 14.375 8.6875 C6.02937247 6.49070122 -2.56916473 7.0708603 -11.125 7.3125 C-11.785 8.9625 -12.445 10.6125 -13.125 12.3125 C-12.31289063 12.71082031 -12.31289063 12.71082031 -11.484375 13.1171875 C-8.74974418 14.50261305 -6.06375859 15.96508458 -3.375 17.4375 C-2.39015625 17.97632812 -1.4053125 18.51515625 -0.390625 19.0703125 C0.35703125 19.48023438 1.1046875 19.89015625 1.875 20.3125 C1.875 20.9725 1.875 21.6325 1.875 22.3125 C2.865 22.6425 3.855 22.9725 4.875 23.3125 C4.545 24.3025 4.215 25.2925 3.875 26.3125 C3.24980469 25.70664063 2.62460937 25.10078125 1.98046875 24.4765625 C-2.0894692 21.64040448 -6.02589545 20.78405447 -10.8125 19.6875 C-12.52621449 19.28487266 -14.23854437 18.8762919 -15.94921875 18.4609375 C-16.70291748 18.28739746 -17.45661621 18.11385742 -18.2331543 17.93505859 C-20.125 17.3125 -20.125 17.3125 -22.125 15.3125 C-21.73965407 12.23615498 -20.47267444 9.87402859 -18.875 7.25 C-18.47796875 6.57839844 -18.0809375 5.90679687 -17.671875 5.21484375 C-12.84514103 -0.72106393 -7.08337026 -0.11351555 0 0 Z " fill="#782C2B" transform="translate(61.125,109.6875)"/>
<path d="M0 0 C6.41868512 -0.3633218 6.41868512 -0.3633218 9 1.25 C10 3 10 3 9.6875 5.1875 C9.3471875 6.0846875 9.3471875 6.0846875 9 7 C9.66 7 10.32 7 11 7 C11.19916016 8.24716797 11.19916016 8.24716797 11.40234375 9.51953125 C11.57894531 10.60621094 11.75554687 11.69289063 11.9375 12.8125 C12.11152344 13.89144531 12.28554687 14.97039062 12.46484375 16.08203125 C12.93871921 19.04933356 12.93871921 19.04933356 14 22 C14.26961505 25.32097273 14.44499436 28.64159564 14.62109375 31.96875 C14.79211556 35.17265473 14.79211556 35.17265473 17 38 C17.4140625 40.48046875 17.4140625 40.48046875 17.625 43.1875 C17.69976562 44.08855469 17.77453125 44.98960937 17.8515625 45.91796875 C17.90054688 46.60503906 17.94953125 47.29210937 18 48 C18.66 48 19.32 48 20 48 C20.30325122 50.2458605 20.56652522 52.4971469 20.8125 54.75 C20.96332031 56.00296875 21.11414063 57.2559375 21.26953125 58.546875 C21 62 21 62 18.71875 64.4375 C15.54669253 66.26052154 13.60087618 66.33496523 10 66 C7.99967376 69.62714759 7.34268763 73.02541611 6.66015625 77.07421875 C6.44230469 77.70972656 6.22445312 78.34523438 6 79 C4.515 79.495 4.515 79.495 3 80 C3 80.66 3 81.32 3 82 C-4.75 82.125 -4.75 82.125 -7 81 C-7.60107745 77.68273295 -7.74433485 74.36625785 -8 71 C-12.95 70.67 -17.9 70.34 -23 70 C-23.33 68.68 -23.66 67.36 -24 66 C-18.06 66.66 -12.12 67.32 -6 68 C-6 70.97 -6 73.94 -6 77 C-2.7 77.66 0.6 78.32 4 79 C3.9175 77.824375 3.835 76.64875 3.75 75.4375 C3.79067914 70.8488927 4.67592597 67.29790022 8 64 C10.91938901 62.583016 13.83926082 61.7091402 17 61 C17.2536206 55.03991593 16.4991063 50.4433346 14.625 44.8125 C12.62652681 38.47924164 11.23698092 32.35109087 10.45703125 25.734375 C9.98624899 22.917729 9.10594055 20.62278391 8 18 C6.96868795 12.63717733 6.88908637 7.43476771 7 2 C4.69 2 2.38 2 0 2 C0 1.34 0 0.68 0 0 Z " fill="#B0A9C6" transform="translate(131,89)"/>
<path d="M0 0 C0.495 1.98 0.495 1.98 1 4 C-3.48717949 6.94871795 -3.48717949 6.94871795 -6.5 7.25 C-9.24045943 7.77408782 -9.24045943 7.77408782 -10.58203125 10.50390625 C-10.98808594 11.51324219 -11.39414063 12.52257812 -11.8125 13.5625 C-12.23144531 14.57441406 -12.65039062 15.58632812 -13.08203125 16.62890625 C-13.38496094 17.41136719 -13.68789062 18.19382813 -14 19 C-16.31 18.67 -18.62 18.34 -21 18 C-21.0270043 16.54176788 -21.04639787 15.08339325 -21.0625 13.625 C-21.07410156 12.81289062 -21.08570312 12.00078125 -21.09765625 11.1640625 C-21 9 -21 9 -20 7 C-22.31 7.33 -24.62 7.66 -27 8 C-27 8.66 -27 9.32 -27 10 C-31.77962147 10.19118486 -35.60470084 9.98834962 -40 8 C-40.33 7.01 -40.66 6.02 -41 5 C-40.34 4.34 -39.68 3.68 -39 3 C-37.948125 3.495 -37.948125 3.495 -36.875 4 C-33.71942887 5.09758996 -31.31774392 5.22620981 -28 5 C-27.67 4.67 -27.34 4.34 -27 4 C-23.13542605 3.79480138 -19.27710053 3.65396434 -15.40820312 3.5703125 C-9.6647592 3.35543697 -5.28168937 2.28364373 0 0 Z " fill="#DC6A39" transform="translate(148,146)"/>
<path d="M0 0 C3.20899141 0.11071695 6.41689709 0.24114313 9.625 0.375 C10.98044922 0.42140625 10.98044922 0.42140625 12.36328125 0.46875 C17.28891334 0.68447111 21.35339122 1.22116724 26 3 C27.76436685 3.38509005 29.53533958 3.74158636 31.3125 4.0625 C35.89051095 4.89051095 35.89051095 4.89051095 37 6 C38.41327947 6.15620555 39.8335459 6.25056173 41.25390625 6.31640625 C42.10791016 6.35830078 42.96191406 6.40019531 43.84179688 6.44335938 C44.73962891 6.48267578 45.63746094 6.52199219 46.5625 6.5625 C47.46419922 6.60568359 48.36589844 6.64886719 49.29492188 6.69335938 C51.52978485 6.79978142 53.76476308 6.90179988 56 7 C55.67 7.66 55.34 8.32 55 9 C47.05057921 11.22035546 35.55917477 13.14103353 27.6875 10.109375 C26 9 26 9 25 7 C22.48847745 6.15114859 22.48847745 6.15114859 19.43359375 5.4921875 C18.30888672 5.22792969 17.18417969 4.96367188 16.02539062 4.69140625 C14.84138672 4.42199219 13.65738281 4.15257813 12.4375 3.875 C11.24962891 3.59785156 10.06175781 3.32070312 8.83789062 3.03515625 C5.89356754 2.34932999 2.94765959 1.67131487 0 1 C0 0.67 0 0.34 0 0 Z " fill="#861D0F" transform="translate(66,113)"/>
<path d="M0 0 C0.81766846 0.49463745 0.81766846 0.49463745 1.65185547 0.99926758 C4.50723897 2.21617514 6.47731929 2.15813718 9.5703125 2.01171875 C11.16166016 1.94114258 11.16166016 1.94114258 12.78515625 1.86914062 C14.43837891 1.77922852 14.43837891 1.77922852 16.125 1.6875 C17.78982422 1.61499023 17.78982422 1.61499023 19.48828125 1.54101562 C24.91649882 1.507136 24.91649882 1.507136 30 0 C30 0.99 30 1.98 30 3 C31.32 3 32.64 3 34 3 C34 2.34 34 1.68 34 1 C34.66 1.33 35.32 1.66 36 2 C38.59248672 2.27175818 41.18448511 2.44572568 43.78515625 2.62109375 C44.51605469 2.74613281 45.24695313 2.87117188 46 3 C46.495 3.99 46.495 3.99 47 5 C47.66 5 48.32 5 49 5 C49 5.66 49 6.32 49 7 C45.70900846 6.54508087 42.43289593 6.0818024 39.16796875 5.46484375 C26.87385912 3.2896081 14.43890726 3.81761133 2 4 C1.8453125 4.928125 1.8453125 4.928125 1.6875 5.875 C1 8 1 8 -2 10 C-3.85989821 13.29058914 -5.15825125 16.33124603 -6 20 C-5.45730469 20.19335938 -4.91460937 20.38671875 -4.35546875 20.5859375 C-3.64003906 20.84632812 -2.92460938 21.10671875 -2.1875 21.375 C-1.12595703 21.75785156 -1.12595703 21.75785156 -0.04296875 22.1484375 C2 23 2 23 5 25 C4.01 25.33 3.02 25.66 2 26 C1.67 25.67 1.34 25.34 1 25 C-1.01311449 24.60430892 -3.03597208 24.25747809 -5.0625 23.9375 C-6.71958984 23.67259766 -6.71958984 23.67259766 -8.41015625 23.40234375 C-9.26480469 23.26957031 -10.11945312 23.13679688 -11 23 C-11 21.68 -11 20.36 -11 19 C-10.34 19 -9.68 19 -9 19 C-8.97421875 18.15695313 -8.9484375 17.31390625 -8.921875 16.4453125 C-8.86515625 15.34960938 -8.8084375 14.25390625 -8.75 13.125 C-8.68039063 11.48917969 -8.68039063 11.48917969 -8.609375 9.8203125 C-8.40828125 8.88960937 -8.2071875 7.95890625 -8 7 C-6.09375 5.78125 -6.09375 5.78125 -4 5 C-1.77183014 2.46557594 -1.77183014 2.46557594 0 0 Z " fill="#92BEF2" transform="translate(46,105)"/>
<path d="M0 0 C4.62 0 9.24 0 14 0 C14 2.83967231 13.59732819 5.23735711 13 8 C13.99 8.33 14.98 8.66 16 9 C17.80162669 11.52227736 18.04839136 12.64513 17.625 15.75 C17.315625 16.86375 17.315625 16.86375 17 18 C11.5 18.36666667 11.5 18.36666667 9.125 16.625 C8 15 8 15 8 13 C5.03 12.505 5.03 12.505 2 12 C6.20761779 10.59746074 8.11735584 12.09397469 12 14 C12.66 14.66 13.32 15.32 14 16 C14 15.34 14 14.68 14 14 C11.75598043 12.05124617 9.66363467 10.33181733 7 9 C6.67 8.01 6.34 7.02 6 6 C2.99992729 4.29144978 2.99992729 4.29144978 0 3 C0 2.01 0 1.02 0 0 Z " fill="#94C2F4" transform="translate(51,119)"/>
<path d="M0 0 C8.42753818 -0.52356547 15.99795073 0.78621285 24.16503906 2.82592773 C26.1527364 3.31938573 28.14574057 3.78460116 30.140625 4.24804688 C31.39617187 4.55419922 32.65171875 4.86035156 33.9453125 5.17578125 C35.08500488 5.45333252 36.22469727 5.73088379 37.39892578 6.0168457 C38.25728027 6.34128662 39.11563477 6.66572754 40 7 C40.495 8.485 40.495 8.485 41 10 C35.39131015 9.06153811 29.9526633 8.00001689 24.5 6.375 C18.96777439 4.94098889 13.6813934 4.70577852 8 4.6875 C6.7615332 4.67952393 6.7615332 4.67952393 5.49804688 4.67138672 C1.37072834 4.71979354 -1.3408 4.9391361 -5 7 C-5 5.35 -5 3.7 -5 2 C-3.68 2.33 -2.36 2.66 -1 3 C-0.67 2.01 -0.34 1.02 0 0 Z " fill="#801F12" transform="translate(51,112)"/>
<path d="M0 0 C1.0209375 0.4021875 1.0209375 0.4021875 2.0625 0.8125 C2.0625 1.4725 2.0625 2.1325 2.0625 2.8125 C1.36125 2.73 0.66 2.6475 -0.0625 2.5625 C-4.05908978 2.91002955 -5.94957626 4.16411305 -8.9375 6.8125 C-9.67926007 10.33763528 -9.67926007 10.33763528 -9.9375 13.8125 C-11.3125 15.3125 -11.3125 15.3125 -12.9375 16.8125 C-14.07990597 19.1024812 -14.99330895 21.42954162 -15.9375 23.8125 C-16.5975 23.8125 -17.2575 23.8125 -17.9375 23.8125 C-17.9375 24.4725 -17.9375 25.1325 -17.9375 25.8125 C-19.2575 26.1425 -20.5775 26.4725 -21.9375 26.8125 C-21.66035156 26.28140625 -21.38320312 25.7503125 -21.09765625 25.203125 C-20.73542969 24.49671875 -20.37320313 23.7903125 -20 23.0625 C-19.64035156 22.36640625 -19.28070313 21.6703125 -18.91015625 20.953125 C-17.74827044 18.56704457 -17.74827044 18.56704457 -16.9375 14.8125 C-22.8775 14.4825 -28.8175 14.1525 -34.9375 13.8125 C-35.2675 13.1525 -35.5975 12.4925 -35.9375 11.8125 C-28.6775 11.8125 -21.4175 11.8125 -13.9375 11.8125 C-12.9475 8.8425 -11.9575 5.8725 -10.9375 2.8125 C-10.6075 3.4725 -10.2775 4.1325 -9.9375 4.8125 C-9.49019531 4.43996094 -9.04289062 4.06742187 -8.58203125 3.68359375 C-3.58243997 -0.22866638 -3.58243997 -0.22866638 0 0 Z " fill="#84251E" transform="translate(137.9375,106.1875)"/>
<path d="M0 0 C1.34343645 0.98638546 2.67719525 1.98611373 4 3 C6.57258666 3.77832644 6.57258666 3.77832644 9.25 4.1875 C10.14203125 4.34605469 11.0340625 4.50460938 11.953125 4.66796875 C12.62859375 4.77753906 13.3040625 4.88710937 14 5 C14 5.66 14 6.32 14 7 C14.66 7.33 15.32 7.66 16 8 C14.68 8 13.36 8 12 8 C12 7.34 12 6.68 12 6 C10.081875 5.8453125 10.081875 5.8453125 8.125 5.6875 C3.74825984 5.21341041 -0.19014528 4.14012127 -4.34765625 2.71875 C-12.12350034 0.61159932 -20.00817121 0.87799612 -28 0.9375 C-29.15628906 0.94201172 -30.31257813 0.94652344 -31.50390625 0.95117188 C-34.33599225 0.96287471 -37.16796811 0.97927004 -40 1 C-40 0.34 -40 -0.32 -40 -1 C-28.17023784 -4.07426252 -11.73472805 -3.15740165 0 0 Z " fill="#ABAEC9" transform="translate(88,110)"/>
<path d="M0 0 C5.94 0.66 11.88 1.32 18 2 C18 4.97 18 7.94 18 11 C21.3 11.66 24.6 12.32 28 13 C28 11.68 28 10.36 28 9 C28.66 9 29.32 9 30 9 C29.67 10.65 29.34 12.3 29 14 C28.34 14 27.68 14 27 14 C27 14.66 27 15.32 27 16 C19.25 16.125 19.25 16.125 17 15 C16.39892255 11.68273295 16.25566515 8.36625785 16 5 C11.05 4.67 6.1 4.34 1 4 C0.67 2.68 0.34 1.36 0 0 Z " fill="#A5BCE1" transform="translate(107,155)"/>
<path d="M0 0 C-0.99 3.3 -1.98 6.6 -3 10 C-8 11 -8 11 -11 10 C-11 7.03 -11 4.06 -11 1 C-7.57067929 -0.71466036 -3.78283935 -0.05404056 0 0 Z " fill="#951E03" transform="translate(138,154)"/>
<path d="M0 0 C0.66 0 1.32 0 2 0 C2.054348 2.0622048 2.09294961 4.12482816 2.125 6.1875 C2.14820313 7.33605469 2.17140625 8.48460938 2.1953125 9.66796875 C2.00121187 12.97932548 1.37073305 15.01779585 0 18 C-0.79642949 20.36261381 -1.5575389 22.73447406 -2.31640625 25.109375 C-3 27 -3 27 -4 28 C-5.4887186 28.08669432 -6.981445 28.10703494 -8.47265625 28.09765625 C-9.37177734 28.09443359 -10.27089844 28.09121094 -11.19726562 28.08789062 C-12.14279297 28.07951172 -13.08832031 28.07113281 -14.0625 28.0625 C-15.01189453 28.05798828 -15.96128906 28.05347656 -16.93945312 28.04882812 C-19.29303065 28.0370011 -21.64648477 28.02052025 -24 28 C-24 27.67 -24 27.34 -24 27 C-17.73 27 -11.46 27 -5 27 C-4.05329654 21.12192522 -4.05329654 21.12192522 -3.11547852 15.24243164 C-2.99615967 14.51403076 -2.87684082 13.78562988 -2.75390625 13.03515625 C-2.63345947 12.2862915 -2.5130127 11.53742676 -2.38891602 10.76586914 C-2 9 -2 9 -1 8 C-0.76924918 6.65252916 -0.58846937 5.29622435 -0.4375 3.9375 C-0.293125 2.638125 -0.14875 1.33875 0 0 Z " fill="#B2AECA" transform="translate(128,91)"/>
<path d="M0 0 C0.33 0 0.66 0 1 0 C1 2.64 1 5.28 1 8 C2.65 8.33 4.3 8.66 6 9 C5.34 10.65 4.68 12.3 4 14 C0.7 14.33 -2.6 14.66 -6 15 C-5.39644592 11.14974121 -4.23227397 8.13898841 -2.4375 4.6875 C-1.98246094 3.80449219 -1.52742188 2.92148438 -1.05859375 2.01171875 C-0.53458984 1.01591797 -0.53458984 1.01591797 0 0 Z " fill="#802017" transform="translate(115,134)"/>
<path d="M0 0 C0.8971875 0.309375 0.8971875 0.309375 1.8125 0.625 C1.214375 0.99625 0.61625 1.3675 0 1.75 C-3.71150956 4.93129391 -5.11142184 8.96869919 -6.1875 13.625 C-5.64480469 13.81835938 -5.10210937 14.01171875 -4.54296875 14.2109375 C-3.82753906 14.47132812 -3.11210938 14.73171875 -2.375 15 C-1.66730469 15.25523438 -0.95960937 15.51046875 -0.23046875 15.7734375 C1.8125 16.625 1.8125 16.625 4.8125 18.625 C3.8225 18.955 2.8325 19.285 1.8125 19.625 C1.4825 19.295 1.1525 18.965 0.8125 18.625 C-1.20061449 18.22930892 -3.22347208 17.88247809 -5.25 17.5625 C-6.90708984 17.29759766 -6.90708984 17.29759766 -8.59765625 17.02734375 C-9.45230469 16.89457031 -10.30695312 16.76179688 -11.1875 16.625 C-11.1875 15.305 -11.1875 13.985 -11.1875 12.625 C-10.5275 12.625 -9.8675 12.625 -9.1875 12.625 C-8.89875 11.738125 -8.61 10.85125 -8.3125 9.9375 C-4.66584947 -0.79985991 -4.66584947 -0.79985991 0 0 Z " fill="#A7B3D5" transform="translate(46.1875,111.375)"/>
<path d="M0 0 C-0.33 3.63 -0.66 7.26 -1 11 C1.64 11 4.28 11 7 11 C7 12.32 7 13.64 7 15 C-0.75 14.125 -0.75 14.125 -3 13 C-3 10.03 -3 7.06 -3 4 C-7.29 4 -11.58 4 -16 4 C-16 3.34 -16 2.68 -16 2 C-13.03 2.33 -10.06 2.66 -7 3 C-7 2.34 -7 1.68 -7 1 C-2.25 0 -2.25 0 0 0 Z " fill="#CAACAD" transform="translate(128,153)"/>
<path d="M0 0 C1.45947705 0.06006078 2.91779272 0.1488689 4.375 0.25 C5.59316406 0.31960937 5.59316406 0.31960937 6.8359375 0.390625 C9 1 9 1 10.3125 2.875 C11.18449471 5.57025639 10.74837142 7.30586287 10 10 C4.5 10.36666667 4.5 10.36666667 2.125 8.625 C1 7 1 7 1 5 C-1.97 4.505 -1.97 4.505 -5 4 C-0.79238221 2.59746074 1.11735584 4.09397469 5 6 C5.66 6.66 6.32 7.32 7 8 C7 7.34 7 6.68 7 6 C5.36739286 4.62517293 3.69774938 3.29352333 2 2 C1.34 1.34 0.68 0.68 0 0 Z " fill="#A4B8E0" transform="translate(58,127)"/>
<path d="M0 0 C5.75 -0.125 5.75 -0.125 8 1 C9.99760305 1.34740923 11.99787771 1.67966043 14 2 C15.33737094 2.31674575 16.67288808 2.64270064 18 3 C18 3.99 18 4.98 18 6 C16.88625 5.938125 15.7725 5.87625 14.625 5.8125 C12.830625 5.9053125 12.830625 5.9053125 11 6 C10.01 7.485 10.01 7.485 9 9 C8.34 9 7.68 9 7 9 C6.9071875 7.824375 6.9071875 7.824375 6.8125 6.625 C6.544375 5.75875 6.27625 4.8925 6 4 C3.54295238 2.76709799 3.54295238 2.76709799 1 2 C0.67 1.34 0.34 0.68 0 0 Z " fill="#8FC2F8" transform="translate(41,129)"/>
<path d="M0 0 C2.69101234 2.69101234 2.29887549 4.19075946 2.3125 7.9375 C2.32925781 8.99839844 2.34601563 10.05929688 2.36328125 11.15234375 C2 14 2 14 0.6796875 15.8671875 C-1.83518297 17.56326293 -4.05163764 17.19655749 -7 17 C-8.52299523 19.93720508 -9.80100302 22.9168649 -11 26 C-11.66 26 -12.32 26 -13 26 C-12.49147996 21.62672765 -11.91611308 18.37175575 -9 15 C-6.03133612 13.6817656 -3.14955815 12.86726964 0 12 C0 8.04 0 4.08 0 0 Z " fill="#BAACBC" transform="translate(148,138)"/>
<path d="M0 0 C0.86625 0.33 1.7325 0.66 2.625 1 C5.98517909 1.99560862 8.52394822 2.15449119 12 2 C12.99 2 13.98 2 15 2 C14.34 3.65 13.68 5.3 13 7 C8.22037853 7.19118486 4.39529916 6.98834962 0 5 C-0.33 4.01 -0.66 3.02 -1 2 C-0.67 1.34 -0.34 0.68 0 0 Z " fill="#C86742" transform="translate(108,149)"/>
<path d="M0 0 C3.30081791 1.61897259 6.52557433 3.35924309 9.75 5.125 C11.22726563 5.93324219 11.22726563 5.93324219 12.734375 6.7578125 C13.48203125 7.16773438 14.2296875 7.57765625 15 8 C15 8.66 15 9.32 15 10 C15.99 10.33 16.98 10.66 18 11 C17.67 11.99 17.34 12.98 17 14 C16.4225 13.401875 15.845 12.80375 15.25 12.1875 C10.54660496 9.02175334 5.49586962 8.15702518 0 7 C0.99 6.34 1.98 5.68 3 5 C2.01 3.35 1.02 1.7 0 0 Z " fill="#733432" transform="translate(48,122)"/>
<path d="M0 0 C7.26 0.33 14.52 0.66 22 1 C21.67 4.3 21.34 7.6 21 11 C20.01 11.33 19.02 11.66 18 12 C18 12.66 18 13.32 18 14 C16.68 14.33 15.36 14.66 14 15 C14.27714844 14.46890625 14.55429688 13.9378125 14.83984375 13.390625 C15.20207031 12.68421875 15.56429687 11.9778125 15.9375 11.25 C16.29714844 10.55390625 16.65679687 9.8578125 17.02734375 9.140625 C18.18922956 6.75454457 18.18922956 6.75454457 19 3 C13.06 2.67 7.12 2.34 1 2 C0.67 1.34 0.34 0.68 0 0 Z " fill="#803035" transform="translate(102,118)"/>
<path d="M0 0 C0 0.66 0 1.32 0 2 C5.94 2 11.88 2 18 2 C18 2.33 18 2.66 18 3 C17.14450562 3.03758423 17.14450562 3.03758423 16.27172852 3.07592773 C13.70173843 3.19156549 11.13214473 3.31443624 8.5625 3.4375 C7.66466797 3.47681641 6.76683594 3.51613281 5.84179688 3.55664062 C4.98779297 3.59853516 4.13378906 3.64042969 3.25390625 3.68359375 C2.46314697 3.72025146 1.6723877 3.75690918 0.85766602 3.79467773 C-1.01401441 3.80563257 -1.01401441 3.80563257 -2 5 C-6.21571713 5.28743526 -9.18009548 4.79760213 -13 3 C-8.86395936 0.24263957 -4.91089275 0 0 0 Z " fill="#962307" transform="translate(122,147)"/>
<path d="M0 0 C1.81242052 -0.02687279 3.62495233 -0.04633715 5.4375 -0.0625 C6.44683594 -0.07410156 7.45617187 -0.08570313 8.49609375 -0.09765625 C11 0 11 0 12 1 C12.04063832 2.66617115 12.042721 4.33388095 12 6 C10.68 6 9.36 6 8 6 C8 5.34 8 4.68 8 4 C6.95199219 4.14308594 6.95199219 4.14308594 5.8828125 4.2890625 C4.97273438 4.39992187 4.06265625 4.51078125 3.125 4.625 C1.76761719 4.79902344 1.76761719 4.79902344 0.3828125 4.9765625 C-0.40351562 4.98429688 -1.18984375 4.99203125 -2 5 C-2.66 4.34 -3.32 3.68 -4 3 C-2.35 3 -0.7 3 1 3 C0.67 2.01 0.34 1.02 0 0 Z " fill="#8FC2FA" transform="translate(112,159)"/>
<path d="M0 0 C0.66 0 1.32 0 2 0 C4 3 4 3 3.86328125 5.2265625 C3.68152344 6.01804688 3.49976562 6.80953125 3.3125 7.625 C3.14363281 8.42164063 2.97476563 9.21828125 2.80078125 10.0390625 C2.53652344 10.68617188 2.27226563 11.33328125 2 12 C1.01 12.33 0.02 12.66 -1 13 C-1 14.65 -1 16.3 -1 18 C-1.33 18 -1.66 18 -2 18 C-2 14.7 -2 11.4 -2 8 C-2.99 8.495 -2.99 8.495 -4 9 C-4 8.01 -4 7.02 -4 6 C-3.34 6 -2.68 6 -2 6 C-2 5.34 -2 4.68 -2 4 C-1.34 4 -0.68 4 0 4 C0 2.68 0 1.36 0 0 Z " fill="#93C0F4" transform="translate(106,136)"/>
<path d="M0 0 C4.62 0 9.24 0 14 0 C13.67 0.66 13.34 1.32 13 2 C5.05185797 4.21999829 -3.80260335 4.80204744 -12 4 C-12.99 3.34 -13.98 2.68 -15 2 C-10.05 2 -5.1 2 0 2 C0 1.34 0 0.68 0 0 Z " fill="#71221D" transform="translate(108,120)"/>
<path d="M0 0 C0 0.66 0 1.32 0 2 C-0.99 2 -1.98 2 -3 2 C-2.95875 3.175625 -2.9175 4.35125 -2.875 5.5625 C-2.875 9.68133151 -3.77517868 13.05335352 -5 17 C-5.54772087 19.64797429 -6.0489796 22.30102887 -6.53515625 24.9609375 C-7 27 -7 27 -8 28 C-9.99958364 28.04080783 -12.00045254 28.04254356 -14 28 C-12.68 27.67 -11.36 27.34 -10 27 C-10 26.34 -10 25.68 -10 25 C-9.34 25 -8.68 25 -8 25 C-8 21.7 -8 18.4 -8 15 C-7.67 15 -7.34 15 -7 15 C-6.80664062 14.00097656 -6.61328125 13.00195312 -6.4140625 11.97265625 C-6.15367188 10.68230469 -5.89328125 9.39195313 -5.625 8.0625 C-5.24214844 6.13083984 -5.24214844 6.13083984 -4.8515625 4.16015625 C-4.57054688 3.11730469 -4.28953125 2.07445313 -4 1 C-2 0 -2 0 0 0 Z " fill="#96BFF4" transform="translate(131,89)"/>
<path d="M0 0 C3.75056894 0.11550665 3.75056894 0.11550665 6 2.4375 C7.32008475 6.16479812 7.72862452 9.49776934 8.0625 13.4375 C7.4025 12.4475 6.7425 11.4575 6.0625 10.4375 C5.0725 10.1075 4.0825 9.7775 3.0625 9.4375 C2.918125 8.633125 2.77375 7.82875 2.625 7 C2.32114751 4.51646294 2.32114751 4.51646294 1.0625 3.4375 C-1.26567964 3.06989269 -3.5993385 2.73508419 -5.9375 2.4375 C-3.9375 0.4375 -3.9375 0.4375 0 0 Z " fill="#8FC2F5" transform="translate(136.9375,86.5625)"/>
<path d="M0 0 C2.64 0.66 5.28 1.32 8 2 C4.87063825 4.76852718 2.94946187 5.36539759 -1.203125 5.29296875 C-2.67265625 5.2784668 -2.67265625 5.2784668 -4.171875 5.26367188 C-5.69554687 5.2259668 -5.69554687 5.2259668 -7.25 5.1875 C-8.28125 5.17396484 -9.3125 5.16042969 -10.375 5.14648438 C-12.91719792 5.11117607 -15.45833223 5.06186036 -18 5 C-18 4.67 -18 4.34 -18 4 C-16.35 4 -14.7 4 -13 4 C-12.67 3.34 -12.34 2.68 -12 2 C-11.34 2.33 -10.68 2.66 -10 3 C-8.46331135 3.22467831 -6.92031946 3.40796805 -5.375 3.5625 C-4.55773437 3.64628906 -3.74046875 3.73007813 -2.8984375 3.81640625 C-2.27195313 3.87699219 -1.64546875 3.93757812 -1 4 C-0.67 2.68 -0.34 1.36 0 0 Z " fill="#871A03" transform="translate(140,144)"/>
<path d="M0 0 C2.1793144 1.75864246 2.93686419 2.69396 3.51171875 5.48046875 C3.56972656 6.37378906 3.62773437 7.26710937 3.6875 8.1875 C3.75324219 9.08855469 3.81898438 9.98960937 3.88671875 10.91796875 C3.92410156 11.60503906 3.96148437 12.29210937 4 13 C4.66 13 5.32 13 6 13 C6.33 17.62 6.66 22.24 7 27 C6.34 27 5.68 27 5 27 C4.67 22.71 4.34 18.42 4 14 C3.34 14 2.68 14 2 14 C1.66179834 12.4176994 1.32964061 10.83410625 1 9.25 C0.814375 8.36828125 0.62875 7.4865625 0.4375 6.578125 C0 4 0 4 0 0 Z " fill="#AABBE1" transform="translate(145,124)"/>
<path d="M0 0 C7.53381176 -0.45002858 14.93102303 0.17008006 22 3 C22.33 3.99 22.66 4.98 23 6 C15.22767795 4.69951304 7.62273755 2.99548103 0 1 C0 0.67 0 0.34 0 0 Z " fill="#723736" transform="translate(69,116)"/>
<path d="M0 0 C0.66 0.99 1.32 1.98 2 3 C0.84765625 6.03125 0.84765625 6.03125 -0.9375 9.5 C-2.02969686 11.63158419 -3.06510156 13.79489001 -4 16 C-3.24849977 19.27773504 -3.24849977 19.27773504 0 21 C-5.875 20.125 -5.875 20.125 -7 19 C-7.04063832 17.33382885 -7.042721 15.66611905 -7 14 C-6.34 13.67 -5.68 13.34 -5 13 C-4.16245636 11.02091496 -4.16245636 11.02091496 -3.5 8.6875 C-2.56596057 5.61633773 -1.50666395 2.83798339 0 0 Z " fill="#B4B0CB" transform="translate(112,135)"/>
<path d="M0 0 C0.66 0.33 1.32 0.66 2 1 C1.34 4.3 0.68 7.6 0 11 C1.32 10.67 2.64 10.34 4 10 C3.5206753 14.31392226 2.2542015 16.16569547 -1 19 C-1.66 18.67 -2.32 18.34 -3 18 C-2.01 17.67 -1.02 17.34 0 17 C-0.165 16.360625 -0.33 15.72125 -0.5 15.0625 C-1.32965388 9.98086997 -1.63839674 4.91519022 0 0 Z " fill="#96C0F5" transform="translate(152,134)"/>
<path d="M0 0 C6.57315478 -0.36517527 11.79485526 0.86380263 18 3 C18 3.99 18 4.98 18 6 C12.59598565 6.51466803 10.37548617 5.00814674 6 2 C2.76961158 1.20929452 2.76961158 1.20929452 0 1 C0 0.67 0 0.34 0 0 Z " fill="#9EBDF1" transform="translate(72,120)"/>
<path d="M0 0 C0.33 1.32 0.66 2.64 1 4 C-2.66291938 6.47785723 -5.6109185 7.48964169 -10 8 C-10.33 7.01 -10.66 6.02 -11 5 C-10.01 5 -9.02 5 -8 5 C-8 4.34 -8 3.68 -8 3 C-5.36 2.01 -2.72 1.02 0 0 Z " fill="#BA6D49" transform="translate(148,146)"/>
<path d="M0 0 C0 2.62113708 -0.31292445 4.50935112 -1 7 C0.65 7 2.3 7 4 7 C0.82679218 10.53586014 -1.16743695 12.58578031 -6 13 C-5.34 12.34 -4.68 11.68 -4 11 C-3.3963783 8.86809626 -3.3963783 8.86809626 -3 6.5 C-2.22222222 2.22222222 -2.22222222 2.22222222 0 0 Z " fill="#9ABFEE" transform="translate(140,157)"/>
<path d="M0 0 C2.64 0 5.28 0 8 0 C8.22142255 1.95689659 8.4267568 3.91561952 8.625 5.875 C8.74101562 6.96554688 8.85703125 8.05609375 8.9765625 9.1796875 C8.98429688 10.11039063 8.99203125 11.04109375 9 12 C8.34 12.66 7.68 13.32 7 14 C6.67 10.04 6.34 6.08 6 2 C4.35 2 2.7 2 1 2 C1 4.64 1 7.28 1 10 C0.67 10 0.34 10 0 10 C0 6.7 0 3.4 0 0 Z " fill="#7D3B42" transform="translate(130,91)"/>
<path d="M0 0 C-0.33 0.66 -0.66 1.32 -1 2 C-1.66 1.67 -2.32 1.34 -3 1 C-3.66 2.32 -4.32 3.64 -5 5 C-5 4.34 -5 3.68 -5 3 C-11.93 3 -18.86 3 -26 3 C-26 2.67 -26 2.34 -26 2 C-22.4169389 1.66369671 -18.83351076 1.33147475 -15.25 1 C-14.23421875 0.90460938 -13.2184375 0.80921875 -12.171875 0.7109375 C-11.1921875 0.62070313 -10.2125 0.53046875 -9.203125 0.4375 C-8.30239258 0.35371094 -7.40166016 0.26992187 -6.47363281 0.18359375 C-4.32080902 0.02381054 -2.15874522 0 0 0 Z " fill="#A88894" transform="translate(122,122)"/>
<path d="M0 0 C0.99 0.33 1.98 0.66 3 1 C3.33 2.98 3.66 4.96 4 7 C5.32 7 6.64 7 8 7 C7.67 7.99 7.34 8.98 7 10 C4.69 9.67 2.38 9.34 0 9 C0 6.03 0 3.06 0 0 Z " fill="#A7442B" transform="translate(127,155)"/>
<path d="M0 0 C2.97 0.495 2.97 0.495 6 1 C7.04449911 4.13349732 6.93423645 4.98968256 6 8 C4.68 7.67 3.36 7.34 2 7 C1.34 4.69 0.68 2.38 0 0 Z " fill="#93C3F9" transform="translate(115,23)"/>
<path d="M0 0 C0.33 0 0.66 0 1 0 C1.66 5.61 2.32 11.22 3 17 C2.34 17 1.68 17 1 17 C-1.37706418 13.33460332 -1.05094317 10.50943165 -0.625 6.25 C-0.51414063 5.07953125 -0.40328125 3.9090625 -0.2890625 2.703125 C-0.19367188 1.81109375 -0.09828125 0.9190625 0 0 Z " fill="#8C342A" transform="translate(141,112)"/>
<path d="M0 0 C0.33 0 0.66 0 1 0 C1 2.31 1 4.62 1 7 C3.64 7 6.28 7 9 7 C9 8.32 9 9.64 9 11 C1.125 10.125 1.125 10.125 0 9 C-0.07179964 7.48071962 -0.08392007 5.95832518 -0.0625 4.4375 C-0.05347656 3.61121094 -0.04445313 2.78492188 -0.03515625 1.93359375 C-0.02355469 1.29550781 -0.01195313 0.65742188 0 0 Z " fill="#BD8E84" transform="translate(126,157)"/>
<path d="M0 0 C5.61 0 11.22 0 17 0 C16.01 0.33 15.02 0.66 14 1 C14.33 1.99 14.66 2.98 15 4 C12.03 4 9.06 4 6 4 C6 3.67 6 3.34 6 3 C7.65 2.67 9.3 2.34 11 2 C7.37 1.67 3.74 1.34 0 1 C0 0.67 0 0.34 0 0 Z " fill="#D85922" transform="translate(123,150)"/>
<path d="M0 0 C0.66 0 1.32 0 2 0 C6 12 6 12 5 15 C1.15344129 11.15344129 0.76500623 5.22754255 0 0 Z " fill="#99C2F5" transform="translate(145,120)"/>
<path d="M0 0 C0.66 0.33 1.32 0.66 2 1 C2 1.99 2 2.98 2 4 C0.68 3.67 -0.64 3.34 -2 3 C-2 4.65 -2 6.3 -2 8 C-1.34 8 -0.68 8 0 8 C0 8.99 0 9.98 0 11 C-0.66 11 -1.32 11 -2 11 C-3.75 8.75 -3.75 8.75 -5 6 C-4.03969728 2.63894049 -2.98299429 1.98866286 0 0 Z " fill="#803A3C" transform="translate(48,111)"/>
<path d="M0 0 C5.94 0.33 11.88 0.66 18 1 C18 1.33 18 1.66 18 2 C17.03578125 2.04898438 16.0715625 2.09796875 15.078125 2.1484375 C13.81484375 2.22320312 12.5515625 2.29796875 11.25 2.375 C9.37054688 2.47941406 9.37054688 2.47941406 7.453125 2.5859375 C4.39001879 2.95323304 2.58025734 3.39711286 0 5 C0 3.35 0 1.7 0 0 Z " fill="#7B2A20" transform="translate(46,114)"/>
<path d="M0 0 C0.680625 0.268125 1.36125 0.53625 2.0625 0.8125 C2.0625 1.4725 2.0625 2.1325 2.0625 2.8125 C1.36125 2.73 0.66 2.6475 -0.0625 2.5625 C-3.86191765 2.89288414 -5.87182503 4.63246447 -8.9375 6.8125 C-9.5975 6.8125 -10.2575 6.8125 -10.9375 6.8125 C-10.6075 5.4925 -10.2775 4.1725 -9.9375 2.8125 C-9.9375 3.4725 -9.9375 4.1325 -9.9375 4.8125 C-9.26654297 4.25369141 -9.26654297 4.25369141 -8.58203125 3.68359375 C-3.58243997 -0.22866638 -3.58243997 -0.22866638 0 0 Z " fill="#C25E4A" transform="translate(137.9375,106.1875)"/>
<path d="M0 0 C0.99 0 1.98 0 3 0 C4.17571451 3.67410785 4.07366746 7.16929183 4 11 C3.67 10.34 3.34 9.68 3 9 C2.01 8.67 1.02 8.34 0 8 C0 5.36 0 2.72 0 0 Z " fill="#9B1C09" transform="translate(132,94)"/>
<path d="M0 0 C0.66 0 1.32 0 2 0 C1.67 1.65 1.34 3.3 1 5 C-2.66305234 5.74926071 -5.42355152 6.2380014 -9 5 C-8.67 4.01 -8.34 3.02 -8 2 C-5.36 2.66 -2.72 3.32 0 4 C0 2.68 0 1.36 0 0 Z " fill="#B4BBCA" transform="translate(135,164)"/>
<path d="M0 0 C8.19256018 1.17286652 8.19256018 1.17286652 11.5625 4.625 C12.2740625 5.800625 12.2740625 5.800625 13 7 C10.625 6.75 10.625 6.75 8 6 C7.690625 5.34 7.38125 4.68 7.0625 4 C6.711875 3.34 6.36125 2.68 6 2 C2.94091587 1.18415432 2.94091587 1.18415432 0 1 C0 0.67 0 0.34 0 0 Z " fill="#A6AAC7" transform="translate(53,130)"/>
<path d="M0 0 C6.41868512 -0.3633218 6.41868512 -0.3633218 9 1.25 C10 3 10 3 9.6875 5.1875 C9.3471875 6.0846875 9.3471875 6.0846875 9 7 C8.34 7 7.68 7 7 7 C7 5.35 7 3.7 7 2 C4.69 2 2.38 2 0 2 C0 1.34 0 0.68 0 0 Z " fill="#B4B4D9" transform="translate(131,89)"/>
<path d="M0 0 C2.475 0.495 2.475 0.495 5 1 C5 1.66 5 2.32 5 3 C8.96 3 12.92 3 17 3 C16.67 3.66 16.34 4.32 16 5 C11.05 4.67 6.1 4.34 1 4 C0.67 2.68 0.34 1.36 0 0 Z " fill="#96BBEC" transform="translate(107,155)"/>
<path d="M0 0 C0.66 0 1.32 0 2 0 C0.31326082 4.49797113 -1.81673892 8.72886302 -4 13 C-4.33 13 -4.66 13 -5 13 C-4.56744475 7.59305933 -3.41778487 4.24633878 0 0 Z " fill="#BDA9BD" transform="translate(119,123)"/>
<path d="M0 0 C0.598125 0.20625 1.19625 0.4125 1.8125 0.625 C1.214375 0.99625 0.61625 1.3675 0 1.75 C-2.68404509 4.05061008 -3.7641714 6.42251065 -5.1875 9.625 C-6.65354374 6.69291253 -5.96675574 4.74202298 -5.1875 1.625 C-2.1875 -0.375 -2.1875 -0.375 0 0 Z " fill="#A8ABC4" transform="translate(46.1875,111.375)"/>
<path d="M0 0 C0.66 0 1.32 0 2 0 C1.64989059 8.19256018 1.64989059 8.19256018 -1.0625 11.5625 C-1.701875 12.036875 -2.34125 12.51125 -3 13 C-2.17812739 8.61667943 -1.09845718 4.32059823 0 0 Z " fill="#7A2821" transform="translate(131,96)"/>
<path d="M0 0 C2.54247553 0.84749184 4.71108972 1.62665383 7 3 C7.33 3.99 7.66 4.98 8 6 C5.36 5.67 2.72 5.34 0 5 C0 3.35 0 1.7 0 0 Z " fill="#79ADF6" transform="translate(0,0)"/>
<path d="M0 0 C0.33 0 0.66 0 1 0 C1 1.98 1 3.96 1 6 C3.97 6.495 3.97 6.495 7 7 C5.3125 7.6875 5.3125 7.6875 3 8 C0.25 6.5625 0.25 6.5625 -2 5 C-1.125 1.125 -1.125 1.125 0 0 Z " fill="#763B3B" transform="translate(41,120)"/>
<path d="M0 0 C0.66 0.33 1.32 0.66 2 1 C1.67 1.66 1.34 2.32 1 3 C1.66 3 2.32 3 3 3 C2.67 4.65 2.34 6.3 2 8 C0.68 8.33 -0.64 8.66 -2 9 C-1.34 6.03 -0.68 3.06 0 0 Z " fill="#91C3FA" transform="translate(35,116)"/>
<path d="M0 0 C-7.42857143 3.28571429 -7.42857143 3.28571429 -11 4 C-11 3.34 -11 2.68 -11 2 C-10.01 2 -9.02 2 -8 2 C-8 1.34 -8 0.68 -8 0 C-4.94736336 -0.98120464 -3.05263664 -0.98120464 0 0 Z " fill="#E1703D" transform="translate(148,149)"/>
<path d="M0 0 C3.37705625 0.53725895 6.696686 1.11064623 10 2 C9.67 2.99 9.34 3.98 9 5 C7.68445015 4.5504955 6.37261642 4.09010284 5.0625 3.625 C4.33160156 3.36976563 3.60070313 3.11453125 2.84765625 2.8515625 C1 2 1 2 0 0 Z " fill="#A6BEE2" transform="translate(49,130)"/>
<path d="M0 0 C6.0546875 -0.1953125 6.0546875 -0.1953125 8 0 C8.66 0.66 9.32 1.32 10 2 C6.30458414 2.95024979 3.69541586 2.95024979 0 2 C0 1.34 0 0.68 0 0 Z " fill="#792209" transform="translate(92,120)"/>
<path d="M0 0 C0.66 0 1.32 0 2 0 C0.90931332 3.77545388 0.0916909 6.47043472 -3 9 C-2.5020163 5.26512223 -2.12508244 3.18762365 0 0 Z " fill="#7D2C1D" transform="translate(136,154)"/>
<path d="M0 0 C2 2 2 2 2.125 4.625 C2.08375 5.40875 2.0425 6.1925 2 7 C0.68 7 -0.64 7 -2 7 C-1.125 2.25 -1.125 2.25 0 0 Z " fill="#712D2D" transform="translate(111,142)"/>
<path d="M0 0 C5.53846154 -0.36923077 5.53846154 -0.36923077 7.875 1.5 C8.24625 1.995 8.6175 2.49 9 3 C5.625 3.1875 5.625 3.1875 2 3 C1.34 2.01 0.68 1.02 0 0 Z " fill="#9AC0F0" transform="translate(41,129)"/>
<path d="M0 0 C0.598125 0.61875 1.19625 1.2375 1.8125 1.875 C4.00811144 4.13676954 4.00811144 4.13676954 7 6 C4.03 5.67 1.06 5.34 -2 5 C-1.34 4.01 -0.68 3.02 0 2 C0 1.34 0 0.68 0 0 Z " fill="#772117" transform="translate(47,122)"/>
<path d="M0 0 C0.66 0.33 1.32 0.66 2 1 C2 4.3 2 7.6 2 11 C1.01 11.495 1.01 11.495 0 12 C0.03255208 9.98177083 0.06510417 7.96354167 0.09765625 5.9453125 C0.12649242 3.91814596 0.12649242 3.91814596 -1 2 C-0.67 1.34 -0.34 0.68 0 0 Z " fill="#862714" transform="translate(139,109)"/>
<path d="M0 0 C2.97 0.495 2.97 0.495 6 1 C5.01 2.32 4.02 3.64 3 5 C2.01 4.67 1.02 4.34 0 4 C0 2.68 0 1.36 0 0 Z " fill="#98C8FC" transform="translate(138,163)"/>
<path d="M0 0 C0.66 0 1.32 0 2 0 C2.268125 0.78375 2.53625 1.5675 2.8125 2.375 C3.84814432 5.28114923 3.84814432 5.28114923 7 7 C1.125 6.125 1.125 6.125 0 5 C-0.04063832 3.33382885 -0.042721 1.66611905 0 0 Z " fill="#B0B9D2" transform="translate(105,149)"/>
<path d="M0 0 C3.3 0 6.6 0 10 0 C8.515 1.485 8.515 1.485 7 3 C4.69 2.34 2.38 1.68 0 1 C0 0.67 0 0.34 0 0 Z " fill="#91C1F5" transform="translate(99,127)"/>
<path d="M0 0 C0.99 0 1.98 0 3 0 C3 0.99 3 1.98 3 3 C3.66 3.33 4.32 3.66 5 4 C3.35 4.33 1.7 4.66 0 5 C-0.5625 3.0625 -0.5625 3.0625 -1 1 C-0.67 0.67 -0.34 0.34 0 0 Z " fill="#6FAFEE" transform="translate(19,49)"/>
<path d="M0 0 C0.33 0.66 0.66 1.32 1 2 C1.99 2.33 2.98 2.66 4 3 C3.67 4.32 3.34 5.64 3 7 C2.34 7 1.68 7 1 7 C1 5.68 1 4.36 1 3 C0.34 3 -0.32 3 -1 3 C-0.67 2.01 -0.34 1.02 0 0 Z " fill="#6FAFF0" transform="translate(103,49)"/>
<path d="M0 0 C0.99 0.33 1.98 0.66 3 1 C3 1.66 3 2.32 3 3 C3.99 3.33 4.98 3.66 6 4 C5.67 4.99 5.34 5.98 5 7 C2.5 5.1875 2.5 5.1875 0 3 C0 2.01 0 1.02 0 0 Z " fill="#5F5169" transform="translate(60,129)"/>
<path d="M0 0 C2.64 0.33 5.28 0.66 8 1 C8 1.66 8 2.32 8 3 C5.125 3.1875 5.125 3.1875 2 3 C1.34 2.01 0.68 1.02 0 0 Z " fill="#94C3F7" transform="translate(82,123)"/>
<path d="M0 0 C2.4375 0.8125 2.4375 0.8125 5 2 C5.33 2.99 5.66 3.98 6 5 C4.02 4.34 2.04 3.68 0 3 C0 2.01 0 1.02 0 0 Z " fill="#B2A1B8" transform="translate(52,122)"/>
<path d="M0 0 C2.97 0.33 5.94 0.66 9 1 C7 3 7 3 3.875 3.125 C2.451875 3.063125 2.451875 3.063125 1 3 C0.67 2.01 0.34 1.02 0 0 Z " fill="#79B4F8" transform="translate(96,18)"/>
</svg>
